<svg width="24" height="17" viewBox="0 0 24 17" fill="none" xmlns="http://www.w3.org/2000/svg">
<path id="Vector" d="M22.7916 4.77734H6.01405C5.63934 4.77734 5.34426 4.88976 5.12881 5.11458C4.91335 5.3394 4.80562 5.6298 4.80562 5.98577C4.80562 6.34175 4.91335 6.63214 5.12881 6.85697C5.34426 7.08179 5.63934 7.19421 6.01405 7.19421H22.7916C23.1475 7.19421 23.4379 7.08179 23.6628 6.85697C23.8876 6.63214 24 6.34175 24 5.98577C24 5.6298 23.8876 5.3394 23.6628 5.11458C23.4379 4.88976 23.1475 4.77734 22.7916 4.77734ZM1.20843 2.38858H22.7916C23.1475 2.38858 23.4379 2.28086 23.6628 2.0654C23.8876 1.84994 24 1.55486 24 1.18015C24 0.824182 23.8876 0.538467 23.6628 0.323011C23.4379 0.107553 23.1475 -0.000173569 22.7916 -0.000173569H1.20843C0.852459 -0.000173569 0.562061 0.107553 0.337237 0.323011C0.112412 0.538467 0 0.824182 0 1.18015C0 1.55486 0.112412 1.84994 0.337237 2.0654C0.562061 2.28086 0.852459 2.38858 1.20843 2.38858ZM22.7916 9.58296H1.20843C0.852459 9.58296 0.562061 9.69069 0.337237 9.90615C0.112412 10.1216 0 10.4167 0 10.7914C0 11.1474 0.112412 11.4331 0.337237 11.6485C0.562061 11.864 0.852459 11.9717 1.20843 11.9717H22.7916C23.1475 11.9717 23.4379 11.864 23.6628 11.6485C23.8876 11.4331 24 11.1474 24 10.7914C24 10.4167 23.8876 10.1216 23.6628 9.90615C23.4379 9.69069 23.1475 9.58296 22.7916 9.58296ZM22.7916 14.3886H6.01405C5.63934 14.3886 5.34426 14.4963 5.12881 14.7118C4.91335 14.9272 4.80562 15.2129 4.80562 15.5689C4.80562 15.9436 4.91335 16.2387 5.12881 16.4542C5.34426 16.6696 5.63934 16.7773 6.01405 16.7773H22.7916C23.1475 16.7773 23.4379 16.6696 23.6628 16.4542C23.8876 16.2387 24 15.9436 24 15.5689C24 15.2129 23.8876 14.9272 23.6628 14.7118C23.4379 14.4963 23.1475 14.3886 22.7916 14.3886Z" fill="#4A4D51"/>
</svg>
