<svg width="20" height="20" viewBox="0 0 20 20" fill="none" xmlns="http://www.w3.org/2000/svg">
<g id="Icon">
<path id="Vector" d="M10.9961 17.168C10.7878 17.0378 10.5729 17.0085 10.3516 17.0801C10.1302 17.1517 9.95443 17.2917 9.82422 17.5C9.70703 17.7083 9.5345 17.8353 9.30664 17.8809C9.07878 17.9264 8.86068 17.9102 8.65234 17.832C8.57422 17.793 8.51237 17.7474 8.4668 17.6953C8.42122 17.6432 8.3724 17.5781 8.32031 17.5C8.20312 17.2917 8.03385 17.1647 7.8125 17.1191C7.59115 17.0736 7.3763 17.0898 7.16797 17.168C6.95964 17.2982 6.82943 17.474 6.77734 17.6953C6.72526 17.9167 6.74479 18.1315 6.83594 18.3398C6.95312 18.5482 7.08008 18.7207 7.2168 18.8574C7.35352 18.9941 7.52604 19.1276 7.73438 19.2578C7.94271 19.375 8.15104 19.4596 8.35938 19.5117C8.56771 19.5638 8.77604 19.5898 8.98438 19.5898C9.40104 19.5898 9.80469 19.4857 10.1953 19.2773C10.5859 19.069 10.9049 18.7565 11.1523 18.3398C11.3607 18.1315 11.4388 17.9167 11.3867 17.6953C11.3346 17.474 11.2044 17.2982 10.9961 17.168ZM17.5 13.75C17.0312 13.75 16.6341 13.5872 16.3086 13.2617C15.9831 12.9362 15.8203 12.5456 15.8203 12.0898V7.91016C15.8203 6.9987 15.6445 6.13932 15.293 5.33203C14.9414 4.52474 14.4661 3.81836 13.8672 3.21289C13.2682 2.60742 12.5651 2.12891 11.7578 1.77734C10.9375 1.42578 10.0716 1.25 9.16016 1.25C8.2487 1.25 7.38281 1.42578 6.5625 1.77734C5.75521 2.12891 5.05208 2.60742 4.45312 3.21289C3.85417 3.81836 3.37891 4.52474 3.02734 5.33203C2.67578 6.13932 2.5 6.9987 2.5 7.91016V12.0898C2.5 12.5456 2.33724 12.9362 2.01172 13.2617C1.6862 13.5872 1.28906 13.75 0.820312 13.75C0.572917 13.75 0.374349 13.8249 0.224609 13.9746C0.0748698 14.1243 0 14.3294 0 14.5898C0 14.8372 0.0748698 15.0358 0.224609 15.1855C0.374349 15.3353 0.572917 15.4102 0.820312 15.4102H17.5C17.7474 15.4102 17.946 15.3353 18.0957 15.1855C18.2454 15.0358 18.3203 14.8372 18.3203 14.5898C18.3203 14.3294 18.2454 14.1243 18.0957 13.9746C17.946 13.8249 17.7474 13.75 17.5 13.75ZM3.75 13.75C3.86719 13.5026 3.96484 13.2357 4.04297 12.9492C4.12109 12.6628 4.16016 12.3763 4.16016 12.0898V7.91016C4.16016 7.23307 4.29036 6.58854 4.55078 5.97656C4.8112 5.36458 5.16927 4.83398 5.625 4.38477C6.08073 3.93555 6.61458 3.58073 7.22656 3.32031C7.82552 3.04688 8.47005 2.91016 9.16016 2.91016C9.85026 2.91016 10.4948 3.04688 11.0938 3.32031C11.7057 3.58073 12.2396 3.93555 12.6953 4.38477C13.151 4.83398 13.5091 5.36458 13.7695 5.97656C14.0299 6.58854 14.1602 7.23307 14.1602 7.91016V12.0898C14.1602 12.3763 14.1992 12.6628 14.2773 12.9492C14.3555 13.2357 14.4531 13.5026 14.5703 13.75H3.75Z" fill="#4A4D51"/>
</g>
</svg>
