<svg width="20" height="20" viewBox="0 0 20 20" fill="none" xmlns="http://www.w3.org/2000/svg">
<g id="Link" clip-path="url(#clip0_690_12062)">
<path id="Vector" d="M16.1891 10.332C16.0719 10.2539 15.9222 10.2181 15.7399 10.2246C15.5576 10.2311 15.4013 10.293 15.2711 10.4102C14.8415 10.7487 14.3727 11.0026 13.8649 11.1719C13.3571 11.3411 12.8428 11.4258 12.3219 11.4258C11.8011 11.4258 11.2868 11.3411 10.779 11.1719C10.2711 11.0026 9.79588 10.7487 9.35317 10.4102C8.79327 9.99349 8.34406 9.50521 8.00552 8.94531C7.66697 8.3724 7.44887 7.77018 7.35122 7.13867C7.25356 6.50716 7.27635 5.8724 7.41958 5.23438C7.57583 4.58333 7.86229 3.97786 8.27895 3.41797C8.35708 3.28776 8.41242 3.14453 8.44497 2.98828C8.47752 2.83203 8.44822 2.66927 8.35708 2.5C8.27895 2.36979 8.16177 2.26888 8.00552 2.19727C7.84926 2.12565 7.69301 2.08984 7.53676 2.08984C6.53416 2.16797 5.59666 2.41537 4.72426 2.83203C3.83885 3.2487 3.06411 3.78906 2.40005 4.45312C1.73598 5.11719 1.19562 5.89193 0.778952 6.77734C0.362286 7.64974 0.11489 8.58724 0.0367647 9.58984C-0.067402 10.7357 0.0497855 11.8294 0.388327 12.8711C0.726869 13.9258 1.23468 14.8633 1.91176 15.6836C2.58885 16.5039 3.40916 17.181 4.3727 17.7148C5.33624 18.2487 6.39093 18.5677 7.53676 18.6719C7.65395 18.6719 7.77439 18.6719 7.89809 18.6719C8.02179 18.6719 8.14874 18.6719 8.27895 18.6719C9.24249 18.6719 10.1832 18.5091 11.1012 18.1836C12.0192 17.8581 12.8558 17.3828 13.611 16.7578C14.0537 16.3932 14.4443 16.0026 14.7829 15.5859C15.1214 15.1562 15.4176 14.7038 15.6715 14.2285C15.9254 13.7533 16.1305 13.2487 16.2868 12.7148C16.443 12.194 16.5537 11.6471 16.6188 11.0742C16.6188 10.957 16.5797 10.8236 16.5016 10.6738C16.4235 10.5241 16.3193 10.4102 16.1891 10.332ZM12.6149 15.5078C11.9508 16.0807 11.1989 16.4941 10.359 16.748C9.51919 17.002 8.65656 17.0833 7.77114 16.9922C6.85968 16.9141 6.01984 16.6667 5.25161 16.25C4.48338 15.8203 3.82583 15.2767 3.27895 14.6191C2.73208 13.9616 2.32843 13.2161 2.06801 12.3828C1.79458 11.5495 1.69692 10.6706 1.77505 9.74609C1.84015 9.10807 1.98989 8.48958 2.22426 7.89062C2.47166 7.30469 2.78416 6.76432 3.16176 6.26953C3.53937 5.77474 3.98208 5.33854 4.48989 4.96094C4.98468 4.58333 5.52505 4.29036 6.11098 4.08203C5.86359 4.74609 5.73338 5.4362 5.72036 6.15234C5.70734 6.85547 5.80174 7.54557 6.00356 8.22266C6.20538 8.89974 6.50812 9.54427 6.91176 10.1562C7.32843 10.7552 7.84275 11.2891 8.45473 11.7578C8.91046 12.0833 9.39223 12.3503 9.90005 12.5586C10.4209 12.7669 10.9482 12.9102 11.4821 12.9883C12.0159 13.0664 12.5563 13.0794 13.1032 13.0273C13.65 12.9753 14.1839 12.8581 14.7047 12.6758C14.4443 13.2096 14.1448 13.7207 13.8063 14.209C13.4678 14.6973 13.0706 15.1302 12.6149 15.5078Z" fill="#4A4D51"/>
</g>
<defs>
<clipPath id="clip0_690_12062">
<rect width="20" height="20" fill="white" transform="matrix(1 0 0 -1 0 20)"/>
</clipPath>
</defs>
</svg>
